<?xml version="1.0" encoding="iso-8859-1"?>
<!DOCTYPE svg PUBLIC "-//W3C//DTD SVG 1.1//EN" "http://www.w3.org/Graphics/SVG/1.1/DTD/svg11.dtd">
<svg version="1.1" xmlns="http://www.w3.org/2000/svg" xmlns:xlink="http://www.w3.org/1999/xlink" x="0px" y="0px"
	 width="512px" height="512px" viewBox="0 0 512 512" style="enable-background:new 0 0 512 512;" xml:space="preserve">
<g>
	<path d="M256,0C114.615,0,0,114.615,0,256s114.615,256,256,256s256-114.615,256-256S397.385,0,256,0z M336.969,311.844
		c9.703,9.703,9.703,25.422,0,35.125c-4.852,4.852-11.203,7.266-17.562,7.266c-6.359,0-12.711-2.414-17.562-7.266L256,301.125
		l-45.844,45.844c-4.852,4.852-11.203,7.266-17.562,7.266c-6.359,0-12.711-2.414-17.562-7.266c-9.703-9.703-9.703-25.422,0-35.125
		L220.875,256l-45.844-45.844c-9.703-9.703-9.703-25.422,0-35.125s25.422-9.703,35.125,0L256,220.875l45.844-45.844
		c9.703-9.703,25.422-9.703,35.125,0s9.703,25.422,0,35.125L291.125,256L336.969,311.844z"/>
</g>
</svg>
