<?xml version="1.0" encoding="iso-8859-1"?>
<!DOCTYPE svg PUBLIC "-//W3C//DTD SVG 1.1//EN" "http://www.w3.org/Graphics/SVG/1.1/DTD/svg11.dtd">
<svg version="1.1" xmlns="http://www.w3.org/2000/svg" xmlns:xlink="http://www.w3.org/1999/xlink" x="0px" y="0px"
	 width="512px" height="512px" viewBox="0 0 512 512" style="enable-background:new 0 0 512 512;" xml:space="preserve">
<g>
	<path d="M256,0C114.615,0,0,114.615,0,256s114.615,256,256,256s256-114.615,256-256S397.385,0,256,0z M386.594,226.664
		L236.281,376.977c-4.686,4.686-10.922,7.266-17.562,7.266c-6.641,0-12.875-2.578-17.562-7.266l-75.094-75.094
		c-9.703-9.703-9.703-25.422,0-35.125s25.422-9.703,35.125,0l57.531,57.531l132.75-132.75c9.703-9.703,25.422-9.703,35.125,0
		S396.297,216.961,386.594,226.664z"/>
</g>
</svg>
