<?xml version="1.0" encoding="iso-8859-1"?>
<!DOCTYPE svg PUBLIC "-//W3C//DTD SVG 1.1//EN" "http://www.w3.org/Graphics/SVG/1.1/DTD/svg11.dtd">
<svg version="1.1" xmlns="http://www.w3.org/2000/svg" xmlns:xlink="http://www.w3.org/1999/xlink" x="0px" y="0px"
	 width="512px" height="512px" viewBox="0 0 512 512" style="enable-background:new 0 0 512 512;" xml:space="preserve">
<g>
	<path d="M256,0C114.615,0,0,114.615,0,256s114.615,256,256,256s256-114.615,256-256S397.385,0,256,0z M256,464
		c-114.875,0-208-93.125-208-208S141.125,48,256,48s208,93.125,208,208S370.875,464,256,464z"/>
	<path d="M256,96c-88.365,0-160,71.635-160,160s71.635,160,160,160s160-71.635,160-160S344.365,96,256,96z M256,368
		c-61.856,0-112-50.144-112-112s50.144-112,112-112s112,50.144,112,112S317.856,368,256,368z"/>
	<circle cx="256" cy="256" r="64"/>
</g>
</svg>
